<svg width="275" height="36" viewBox="0 0 275 36" fill="none" xmlns="http://www.w3.org/2000/svg">
<g clip-path="url(#clip0_419_30)">
<path d="M46.1261 28V12.352H49.6541V18.376H55.0541V12.352H58.6061V28H55.0541V21.472H49.6541V28H46.1261ZM67.122 28.288C66.114 28.288 65.162 28.048 64.266 27.568C63.386 27.072 62.674 26.36 62.13 25.432C61.586 24.488 61.314 23.36 61.314 22.048C61.314 20.72 61.586 19.592 62.13 18.664C62.674 17.736 63.386 17.032 64.266 16.552C65.162 16.056 66.114 15.808 67.122 15.808C68.13 15.808 69.074 16.056 69.954 16.552C70.834 17.032 71.546 17.736 72.09 18.664C72.634 19.592 72.906 20.72 72.906 22.048C72.906 23.36 72.634 24.488 72.09 25.432C71.546 26.36 70.834 27.072 69.954 27.568C69.074 28.048 68.13 28.288 67.122 28.288ZM67.122 25.432C67.842 25.432 68.386 25.128 68.754 24.52C69.122 23.896 69.306 23.072 69.306 22.048C69.306 21.008 69.122 20.184 68.754 19.576C68.386 18.968 67.842 18.664 67.122 18.664C66.386 18.664 65.834 18.968 65.466 19.576C65.114 20.184 64.938 21.008 64.938 22.048C64.938 23.072 65.114 23.896 65.466 24.52C65.834 25.128 66.386 25.432 67.122 25.432ZM75.3225 28V16.096H78.2025L78.4425 18.184H78.5385C78.9705 17.384 79.4905 16.792 80.0985 16.408C80.7065 16.008 81.3145 15.808 81.9225 15.808C82.2585 15.808 82.5385 15.832 82.7625 15.88C82.9865 15.912 83.1785 15.968 83.3385 16.048L82.7625 19.096C82.5545 19.032 82.3465 18.984 82.1385 18.952C81.9465 18.92 81.7225 18.904 81.4665 18.904C81.0185 18.904 80.5465 19.072 80.0505 19.408C79.5705 19.728 79.1705 20.288 78.8505 21.088V28H75.3225ZM84.885 28V16.096H88.413V28H84.885ZM86.637 14.344C86.045 14.344 85.565 14.176 85.197 13.84C84.829 13.504 84.645 13.056 84.645 12.496C84.645 11.936 84.829 11.488 85.197 11.152C85.565 10.816 86.045 10.648 86.637 10.648C87.229 10.648 87.709 10.816 88.077 11.152C88.445 11.488 88.629 11.936 88.629 12.496C88.629 13.056 88.445 13.504 88.077 13.84C87.709 14.176 87.229 14.344 86.637 14.344ZM90.8698 28V26.104L95.8618 18.856H91.4218V16.096H100.254V17.968L95.2618 25.24H100.422V28H90.8698ZM107.434 28.288C106.426 28.288 105.474 28.048 104.578 27.568C103.698 27.072 102.986 26.36 102.442 25.432C101.898 24.488 101.626 23.36 101.626 22.048C101.626 20.72 101.898 19.592 102.442 18.664C102.986 17.736 103.698 17.032 104.578 16.552C105.474 16.056 106.426 15.808 107.434 15.808C108.442 15.808 109.386 16.056 110.266 16.552C111.146 17.032 111.858 17.736 112.402 18.664C112.946 19.592 113.218 20.72 113.218 22.048C113.218 23.36 112.946 24.488 112.402 25.432C111.858 26.36 111.146 27.072 110.266 27.568C109.386 28.048 108.442 28.288 107.434 28.288ZM107.434 25.432C108.154 25.432 108.698 25.128 109.066 24.52C109.434 23.896 109.618 23.072 109.618 22.048C109.618 21.008 109.434 20.184 109.066 19.576C108.698 18.968 108.154 18.664 107.434 18.664C106.698 18.664 106.146 18.968 105.778 19.576C105.426 20.184 105.25 21.008 105.25 22.048C105.25 23.072 105.426 23.896 105.778 24.52C106.146 25.128 106.698 25.432 107.434 25.432ZM115.635 28V16.096H118.515L118.755 17.608H118.851C119.363 17.128 119.923 16.712 120.531 16.36C121.155 15.992 121.867 15.808 122.667 15.808C123.963 15.808 124.899 16.24 125.475 17.104C126.067 17.952 126.363 19.12 126.363 20.608V28H122.835V21.064C122.835 20.2 122.715 19.608 122.475 19.288C122.251 18.968 121.883 18.808 121.371 18.808C120.923 18.808 120.539 18.912 120.219 19.12C119.899 19.312 119.547 19.592 119.163 19.96V28H115.635ZM134.462 28V12.352H138.878C140.478 12.352 141.862 12.624 143.03 13.168C144.198 13.712 145.102 14.56 145.742 15.712C146.398 16.848 146.726 18.312 146.726 20.104C146.726 21.896 146.406 23.376 145.766 24.544C145.126 25.712 144.23 26.584 143.078 27.16C141.942 27.72 140.606 28 139.07 28H134.462ZM137.99 25.144H138.662C139.558 25.144 140.334 24.984 140.99 24.664C141.662 24.344 142.182 23.816 142.55 23.08C142.918 22.344 143.102 21.352 143.102 20.104C143.102 18.856 142.918 17.88 142.55 17.176C142.182 16.456 141.662 15.952 140.99 15.664C140.334 15.36 139.558 15.208 138.662 15.208H137.99V25.144ZM154.736 28.288C153.6 28.288 152.576 28.04 151.664 27.544C150.752 27.048 150.032 26.336 149.504 25.408C148.976 24.48 148.712 23.36 148.712 22.048C148.712 20.752 148.976 19.64 149.504 18.712C150.048 17.784 150.752 17.072 151.616 16.576C152.48 16.064 153.384 15.808 154.328 15.808C155.464 15.808 156.4 16.064 157.136 16.576C157.888 17.072 158.448 17.752 158.816 18.616C159.2 19.464 159.392 20.432 159.392 21.52C159.392 21.824 159.376 22.128 159.344 22.432C159.312 22.72 159.28 22.936 159.248 23.08H152.12C152.28 23.944 152.64 24.584 153.2 25C153.76 25.4 154.432 25.6 155.216 25.6C156.064 25.6 156.92 25.336 157.784 24.808L158.96 26.944C158.352 27.36 157.672 27.688 156.92 27.928C156.168 28.168 155.44 28.288 154.736 28.288ZM152.096 20.752H156.392C156.392 20.096 156.232 19.56 155.912 19.144C155.608 18.712 155.104 18.496 154.4 18.496C153.856 18.496 153.368 18.688 152.936 19.072C152.504 19.44 152.224 20 152.096 20.752ZM164.426 28L160.418 16.096H163.97L165.506 21.712C165.666 22.304 165.818 22.912 165.962 23.536C166.122 24.144 166.282 24.76 166.442 25.384H166.538C166.682 24.76 166.826 24.144 166.97 23.536C167.13 22.912 167.29 22.304 167.45 21.712L169.01 16.096H172.394L168.506 28H164.426ZM179.393 28.288C178.257 28.288 177.233 28.04 176.321 27.544C175.409 27.048 174.689 26.336 174.161 25.408C173.633 24.48 173.369 23.36 173.369 22.048C173.369 20.752 173.633 19.64 174.161 18.712C174.705 17.784 175.409 17.072 176.273 16.576C177.137 16.064 178.041 15.808 178.985 15.808C180.121 15.808 181.057 16.064 181.793 16.576C182.545 17.072 183.105 17.752 183.473 18.616C183.857 19.464 184.049 20.432 184.049 21.52C184.049 21.824 184.033 22.128 184.001 22.432C183.969 22.72 183.937 22.936 183.905 23.08H176.777C176.937 23.944 177.297 24.584 177.857 25C178.417 25.4 179.089 25.6 179.873 25.6C180.721 25.6 181.577 25.336 182.441 24.808L183.617 26.944C183.009 27.36 182.329 27.688 181.577 27.928C180.825 28.168 180.097 28.288 179.393 28.288ZM176.753 20.752H181.049C181.049 20.096 180.889 19.56 180.569 19.144C180.265 18.712 179.761 18.496 179.057 18.496C178.513 18.496 178.025 18.688 177.593 19.072C177.161 19.44 176.881 20 176.753 20.752ZM189.727 28.288C188.511 28.288 187.663 27.928 187.183 27.208C186.719 26.472 186.487 25.504 186.487 24.304V11.176H190.015V24.448C190.015 24.816 190.079 25.072 190.207 25.216C190.351 25.36 190.495 25.432 190.639 25.432C190.719 25.432 190.783 25.432 190.831 25.432C190.895 25.416 190.975 25.4 191.071 25.384L191.503 28C191.311 28.08 191.063 28.144 190.759 28.192C190.471 28.256 190.127 28.288 189.727 28.288ZM198.466 28.288C197.458 28.288 196.506 28.048 195.61 27.568C194.73 27.072 194.018 26.36 193.474 25.432C192.93 24.488 192.658 23.36 192.658 22.048C192.658 20.72 192.93 19.592 193.474 18.664C194.018 17.736 194.73 17.032 195.61 16.552C196.506 16.056 197.458 15.808 198.466 15.808C199.474 15.808 200.418 16.056 201.298 16.552C202.178 17.032 202.89 17.736 203.434 18.664C203.978 19.592 204.25 20.72 204.25 22.048C204.25 23.36 203.978 24.488 203.434 25.432C202.89 26.36 202.178 27.072 201.298 27.568C200.418 28.048 199.474 28.288 198.466 28.288ZM198.466 25.432C199.186 25.432 199.73 25.128 200.098 24.52C200.466 23.896 200.65 23.072 200.65 22.048C200.65 21.008 200.466 20.184 200.098 19.576C199.73 18.968 199.186 18.664 198.466 18.664C197.73 18.664 197.178 18.968 196.81 19.576C196.458 20.184 196.282 21.008 196.282 22.048C196.282 23.072 196.458 23.896 196.81 24.52C197.178 25.128 197.73 25.432 198.466 25.432ZM206.666 32.416V16.096H209.546L209.786 17.272H209.882C210.346 16.856 210.866 16.512 211.442 16.24C212.034 15.952 212.642 15.808 213.266 15.808C214.706 15.808 215.842 16.36 216.674 17.464C217.506 18.552 217.922 20.016 217.922 21.856C217.922 23.216 217.682 24.376 217.202 25.336C216.722 26.296 216.098 27.032 215.33 27.544C214.578 28.04 213.77 28.288 212.906 28.288C212.394 28.288 211.898 28.184 211.418 27.976C210.938 27.752 210.49 27.44 210.074 27.04L210.194 28.936V32.416H206.666ZM212.09 25.408C212.698 25.408 213.218 25.128 213.65 24.568C214.082 24.008 214.298 23.12 214.298 21.904C214.298 19.76 213.61 18.688 212.234 18.688C211.546 18.688 210.866 19.048 210.194 19.768V24.64C210.514 24.928 210.834 25.128 211.154 25.24C211.474 25.352 211.786 25.408 212.09 25.408ZM220.424 28V16.096H223.304L223.544 17.632H223.64C224.136 17.136 224.664 16.712 225.224 16.36C225.784 15.992 226.456 15.808 227.24 15.808C228.088 15.808 228.768 15.984 229.28 16.336C229.808 16.672 230.224 17.16 230.528 17.8C231.056 17.256 231.616 16.792 232.208 16.408C232.8 16.008 233.488 15.808 234.272 15.808C235.552 15.808 236.488 16.24 237.08 17.104C237.688 17.952 237.992 19.12 237.992 20.608V28H234.464V21.064C234.464 20.2 234.344 19.608 234.104 19.288C233.88 18.968 233.512 18.808 233 18.808C232.408 18.808 231.728 19.192 230.96 19.96V28H227.432V21.064C227.432 20.2 227.312 19.608 227.072 19.288C226.848 18.968 226.48 18.808 225.968 18.808C225.376 18.808 224.704 19.192 223.952 19.96V28H220.424ZM246.33 28.288C245.194 28.288 244.17 28.04 243.258 27.544C242.346 27.048 241.626 26.336 241.098 25.408C240.57 24.48 240.306 23.36 240.306 22.048C240.306 20.752 240.57 19.64 241.098 18.712C241.642 17.784 242.346 17.072 243.21 16.576C244.074 16.064 244.978 15.808 245.922 15.808C247.058 15.808 247.994 16.064 248.73 16.576C249.482 17.072 250.042 17.752 250.41 18.616C250.794 19.464 250.986 20.432 250.986 21.52C250.986 21.824 250.97 22.128 250.938 22.432C250.906 22.72 250.874 22.936 250.842 23.08H243.714C243.874 23.944 244.234 24.584 244.794 25C245.354 25.4 246.026 25.6 246.81 25.6C247.658 25.6 248.514 25.336 249.378 24.808L250.554 26.944C249.946 27.36 249.266 27.688 248.514 27.928C247.762 28.168 247.034 28.288 246.33 28.288ZM243.69 20.752H247.986C247.986 20.096 247.826 19.56 247.506 19.144C247.202 18.712 246.698 18.496 245.994 18.496C245.45 18.496 244.962 18.688 244.53 19.072C244.098 19.44 243.818 20 243.69 20.752ZM253.424 28V16.096H256.304L256.544 17.608H256.64C257.152 17.128 257.712 16.712 258.32 16.36C258.944 15.992 259.656 15.808 260.456 15.808C261.752 15.808 262.688 16.24 263.264 17.104C263.856 17.952 264.152 19.12 264.152 20.608V28H260.624V21.064C260.624 20.2 260.504 19.608 260.264 19.288C260.04 18.968 259.672 18.808 259.16 18.808C258.712 18.808 258.328 18.912 258.008 19.12C257.688 19.312 257.336 19.592 256.952 19.96V28H253.424ZM271.742 28.288C270.27 28.288 269.214 27.864 268.574 27.016C267.95 26.168 267.638 25.056 267.638 23.68V18.856H266.006V16.24L267.83 16.096L268.238 12.928H271.166V16.096H274.022V18.856H271.166V23.632C271.166 24.304 271.302 24.792 271.574 25.096C271.862 25.384 272.238 25.528 272.702 25.528C272.894 25.528 273.086 25.504 273.278 25.456C273.486 25.408 273.67 25.352 273.83 25.288L274.382 27.856C274.078 27.952 273.702 28.048 273.254 28.144C272.822 28.24 272.318 28.288 271.742 28.288Z" fill="#FF5555"/>
</g>
<path d="M20.6978 3.92346C33.0235 -3.23641 34.6983 16.4422 33.995 27.1765C32.7342 29.0143 29.0447 33.2471 24.3735 35.476C19.7023 37.705 12.2849 24.0409 9.16017 16.9302C7.87032 15.5779 8.37205 11.0833 20.6978 3.92346Z" fill="#FCA703" fill-opacity="0.9"/>
<path d="M5.77681 27.1838C-6.28342 24.5411 3.30414 8.46454 9.60545 0.756613C11.44 0.185655 16.1859 -0.613686 20.4932 0.756613C24.8004 2.12691 22.2878 17.396 20.4932 24.8592C20.6128 26.7352 17.837 29.8265 5.77681 27.1838Z" fill="#FF5555" fill-opacity="0.9"/>
<defs>
<clipPath id="clip0_419_30">
<rect width="236.968" height="29" fill="white" transform="translate(38.032 4)"/>
</clipPath>
</defs>
</svg>
