<svg width="266" height="69" viewBox="0 0 266 69" fill="none" xmlns="http://www.w3.org/2000/svg">
<path d="M36.3333 9.71642C57.9702 -2.54018 60.9101 31.1466 59.6755 49.522C57.4623 52.668 50.9857 59.9139 42.7858 63.7295C34.5858 67.5451 21.5653 44.1543 16.08 31.9819C13.8158 29.667 14.6965 21.973 36.3333 9.71642Z" fill="#13345D"/>
<path d="M10.1407 49.5345C-11.03 45.0106 5.80016 17.49 16.8616 4.2952C20.082 3.31781 28.4131 1.94946 35.9741 4.2952C43.5351 6.64094 39.1245 32.7792 35.9741 45.5551C36.1841 48.7665 31.3115 54.0584 10.1407 49.5345Z" fill="#13345D"/>
<path d="M90.456 17.016H97.944V29.688H112.488V17.016H119.976V51H112.488V36.312H97.944V51H90.456V17.016ZM125.102 39.336C125.102 37.48 125.438 35.8 126.11 34.296C126.782 32.792 127.694 31.512 128.846 30.456C130.03 29.368 131.406 28.536 132.974 27.96C134.574 27.384 136.27 27.096 138.062 27.096C139.854 27.096 141.534 27.384 143.102 27.96C144.702 28.536 146.078 29.368 147.23 30.456C148.414 31.512 149.342 32.792 150.014 34.296C150.686 35.8 151.022 37.48 151.022 39.336C151.022 41.192 150.686 42.872 150.014 44.376C149.342 45.88 148.414 47.176 147.23 48.264C146.078 49.32 144.702 50.136 143.102 50.712C141.534 51.288 139.854 51.576 138.062 51.576C136.27 51.576 134.574 51.288 132.974 50.712C131.406 50.136 130.03 49.32 128.846 48.264C127.694 47.176 126.782 45.88 126.11 44.376C125.438 42.872 125.102 41.192 125.102 39.336ZM132.302 39.336C132.302 41.096 132.798 42.52 133.79 43.608C134.814 44.696 136.238 45.24 138.062 45.24C139.886 45.24 141.294 44.696 142.286 43.608C143.31 42.52 143.822 41.096 143.822 39.336C143.822 37.576 143.31 36.152 142.286 35.064C141.294 33.976 139.886 33.432 138.062 33.432C136.238 33.432 134.814 33.976 133.79 35.064C132.798 36.152 132.302 37.576 132.302 39.336ZM155.263 27.672H162.463V31.416H162.559C163.327 29.976 164.239 28.904 165.295 28.2C166.351 27.464 167.679 27.096 169.279 27.096C169.695 27.096 170.111 27.112 170.527 27.144C170.943 27.176 171.327 27.24 171.679 27.336V33.912C171.167 33.752 170.655 33.64 170.143 33.576C169.663 33.48 169.151 33.432 168.607 33.432C167.231 33.432 166.143 33.624 165.343 34.008C164.543 34.392 163.919 34.936 163.471 35.64C163.055 36.312 162.783 37.128 162.655 38.088C162.527 39.048 162.463 40.104 162.463 41.256V51H155.263V27.672ZM174.906 27.672H182.106V51H174.906V27.672ZM174.33 20.328C174.33 19.176 174.73 18.2 175.53 17.4C176.362 16.568 177.354 16.152 178.506 16.152C179.658 16.152 180.634 16.568 181.434 17.4C182.266 18.2 182.682 19.176 182.682 20.328C182.682 21.48 182.266 22.472 181.434 23.304C180.634 24.104 179.658 24.504 178.506 24.504C177.354 24.504 176.362 24.104 175.53 23.304C174.73 22.472 174.33 21.48 174.33 20.328ZM186.366 43.8L198.462 33.432H186.654V27.672H206.814V34.584L194.142 45.24H207.102V51H186.366V43.8ZM210.414 39.336C210.414 37.48 210.75 35.8 211.422 34.296C212.094 32.792 213.006 31.512 214.158 30.456C215.342 29.368 216.718 28.536 218.286 27.96C219.886 27.384 221.582 27.096 223.374 27.096C225.166 27.096 226.846 27.384 228.414 27.96C230.014 28.536 231.39 29.368 232.542 30.456C233.726 31.512 234.654 32.792 235.326 34.296C235.998 35.8 236.334 37.48 236.334 39.336C236.334 41.192 235.998 42.872 235.326 44.376C234.654 45.88 233.726 47.176 232.542 48.264C231.39 49.32 230.014 50.136 228.414 50.712C226.846 51.288 225.166 51.576 223.374 51.576C221.582 51.576 219.886 51.288 218.286 50.712C216.718 50.136 215.342 49.32 214.158 48.264C213.006 47.176 212.094 45.88 211.422 44.376C210.75 42.872 210.414 41.192 210.414 39.336ZM217.614 39.336C217.614 41.096 218.11 42.52 219.102 43.608C220.126 44.696 221.55 45.24 223.374 45.24C225.198 45.24 226.606 44.696 227.598 43.608C228.622 42.52 229.134 41.096 229.134 39.336C229.134 37.576 228.622 36.152 227.598 35.064C226.606 33.976 225.198 33.432 223.374 33.432C221.55 33.432 220.126 33.976 219.102 35.064C218.11 36.152 217.614 37.576 217.614 39.336ZM240.575 27.672H247.487V30.84H247.583C247.807 30.392 248.127 29.944 248.543 29.496C248.959 29.048 249.455 28.648 250.031 28.296C250.607 27.944 251.263 27.656 251.999 27.432C252.735 27.208 253.535 27.096 254.399 27.096C256.223 27.096 257.695 27.384 258.815 27.96C259.935 28.504 260.799 29.272 261.407 30.264C262.047 31.256 262.479 32.424 262.703 33.768C262.927 35.112 263.039 36.568 263.039 38.136V51H255.839V39.576C255.839 38.904 255.807 38.216 255.743 37.512C255.711 36.776 255.567 36.104 255.311 35.496C255.087 34.888 254.719 34.392 254.207 34.008C253.727 33.624 253.023 33.432 252.095 33.432C251.167 33.432 250.415 33.608 249.839 33.96C249.263 34.28 248.815 34.728 248.495 35.304C248.207 35.848 248.015 36.472 247.919 37.176C247.823 37.88 247.775 38.616 247.775 39.384V51H240.575V27.672Z" fill="#13345D"/>
</svg>
