<svg width="133" height="36" viewBox="0 0 133 36" fill="none" xmlns="http://www.w3.org/2000/svg">
<g clip-path="url(#clip0_408_97)">
<path d="M52.0824 28V12.352H55.6104V18.376H61.0104V12.352H64.5624V28H61.0104V21.472H55.6104V28H52.0824ZM73.0783 28.288C72.0703 28.288 71.1183 28.048 70.2223 27.568C69.3423 27.072 68.6303 26.36 68.0863 25.432C67.5423 24.488 67.2703 23.36 67.2703 22.048C67.2703 20.72 67.5423 19.592 68.0863 18.664C68.6303 17.736 69.3423 17.032 70.2223 16.552C71.1183 16.056 72.0703 15.808 73.0783 15.808C74.0863 15.808 75.0303 16.056 75.9103 16.552C76.7903 17.032 77.5023 17.736 78.0463 18.664C78.5903 19.592 78.8623 20.72 78.8623 22.048C78.8623 23.36 78.5903 24.488 78.0463 25.432C77.5023 26.36 76.7903 27.072 75.9103 27.568C75.0303 28.048 74.0863 28.288 73.0783 28.288ZM73.0783 25.432C73.7983 25.432 74.3423 25.128 74.7103 24.52C75.0783 23.896 75.2623 23.072 75.2623 22.048C75.2623 21.008 75.0783 20.184 74.7103 19.576C74.3423 18.968 73.7983 18.664 73.0783 18.664C72.3423 18.664 71.7903 18.968 71.4223 19.576C71.0703 20.184 70.8943 21.008 70.8943 22.048C70.8943 23.072 71.0703 23.896 71.4223 24.52C71.7903 25.128 72.3423 25.432 73.0783 25.432ZM81.2788 28V16.096H84.1588L84.3988 18.184H84.4948C84.9268 17.384 85.4468 16.792 86.0547 16.408C86.6628 16.008 87.2708 15.808 87.8788 15.808C88.2148 15.808 88.4948 15.832 88.7188 15.88C88.9428 15.912 89.1348 15.968 89.2948 16.048L88.7188 19.096C88.5108 19.032 88.3028 18.984 88.0948 18.952C87.9028 18.92 87.6788 18.904 87.4228 18.904C86.9748 18.904 86.5028 19.072 86.0068 19.408C85.5268 19.728 85.1268 20.288 84.8068 21.088V28H81.2788ZM90.8413 28V16.096H94.3693V28H90.8413ZM92.5933 14.344C92.0013 14.344 91.5213 14.176 91.1533 13.84C90.7853 13.504 90.6013 13.056 90.6013 12.496C90.6013 11.936 90.7853 11.488 91.1533 11.152C91.5213 10.816 92.0013 10.648 92.5933 10.648C93.1853 10.648 93.6653 10.816 94.0333 11.152C94.4013 11.488 94.5853 11.936 94.5853 12.496C94.5853 13.056 94.4013 13.504 94.0333 13.84C93.6653 14.176 93.1853 14.344 92.5933 14.344ZM96.8261 28V26.104L101.818 18.856H97.3781V16.096H106.21V17.968L101.218 25.24H106.378V28H96.8261ZM113.391 28.288C112.383 28.288 111.431 28.048 110.535 27.568C109.655 27.072 108.943 26.36 108.399 25.432C107.855 24.488 107.583 23.36 107.583 22.048C107.583 20.72 107.855 19.592 108.399 18.664C108.943 17.736 109.655 17.032 110.535 16.552C111.431 16.056 112.383 15.808 113.391 15.808C114.399 15.808 115.343 16.056 116.223 16.552C117.103 17.032 117.815 17.736 118.359 18.664C118.903 19.592 119.175 20.72 119.175 22.048C119.175 23.36 118.903 24.488 118.359 25.432C117.815 26.36 117.103 27.072 116.223 27.568C115.343 28.048 114.399 28.288 113.391 28.288ZM113.391 25.432C114.111 25.432 114.655 25.128 115.023 24.52C115.391 23.896 115.575 23.072 115.575 22.048C115.575 21.008 115.391 20.184 115.023 19.576C114.655 18.968 114.111 18.664 113.391 18.664C112.655 18.664 112.103 18.968 111.735 19.576C111.383 20.184 111.207 21.008 111.207 22.048C111.207 23.072 111.383 23.896 111.735 24.52C112.103 25.128 112.655 25.432 113.391 25.432ZM121.591 28V16.096H124.471L124.711 17.608H124.807C125.319 17.128 125.879 16.712 126.487 16.36C127.111 15.992 127.823 15.808 128.623 15.808C129.919 15.808 130.855 16.24 131.431 17.104C132.023 17.952 132.319 19.12 132.319 20.608V28H128.791V21.064C128.791 20.2 128.671 19.608 128.431 19.288C128.207 18.968 127.839 18.808 127.327 18.808C126.879 18.808 126.495 18.912 126.175 19.12C125.855 19.312 125.503 19.592 125.119 19.96V28H121.591Z" fill="#FF5555"/>
</g>
<path d="M21.2246 3.92346C33.8641 -3.23641 35.5815 16.4422 34.8603 27.1765C33.5674 29.0143 29.784 33.2471 24.9939 35.476C20.2038 37.705 12.5976 24.0409 9.39332 16.9302C8.07064 15.5779 8.58515 11.0833 21.2246 3.92346Z" fill="#FCA703" fill-opacity="0.9"/>
<path d="M5.92386 27.1838C-6.44336 24.5411 3.38825 8.46454 9.84996 0.756613C11.7312 0.185655 16.5979 -0.613686 21.0148 0.756613C25.4317 2.12691 22.8552 17.396 21.0148 24.8592C21.1375 26.7352 18.2911 29.8265 5.92386 27.1838Z" fill="#FF5555" fill-opacity="0.9"/>
<defs>
<clipPath id="clip0_408_97">
<rect width="82" height="29" fill="white" transform="translate(51 4)"/>
</clipPath>
</defs>
</svg>
